# 3ds Max Wavefront OBJ Exporter v0.99 - (c)2007 guruware
# File Created: 20.07.2022 16:41:12

mtllib box.mtl

#
# object Box001
#

v  -5.000000 -5.000000 -5.000000
v  -5.000000 5.000000 -5.000000
v  5.000000 5.000000 -5.000000
v  5.000000 -5.000000 -5.000000
v  -5.000000 -5.000000 5.000000
v  5.000000 -5.000000 5.000000
v  5.000000 5.000000 5.000000
v  -5.000000 5.000000 5.000000
# 8 vertices

vn -0.577350 -0.577350 -0.577350
vn -0.577350 0.577350 -0.577350
vn 0.577350 0.577350 -0.577350
vn 0.577350 -0.577350 -0.577350
vn -0.577350 -0.577350 0.577350
vn 0.577350 -0.577350 0.577350
vn 0.577350 0.577350 0.577350
vn -0.577350 0.577350 0.577350
# 8 vertex normals

vt 0.667721 0.332279 0.000000
vt 0.667721 0.000500 0.000000
vt 0.999500 0.000500 0.000000
vt 0.999500 0.332279 0.000000
vt 0.334111 0.342247 0.000000
vt 0.665890 0.342247 0.000000
vt 0.665890 0.674026 0.000000
vt 0.334111 0.674026 0.000000
vt 0.334111 0.000500 0.000000
vt 0.665890 0.000500 0.000000
vt 0.665890 0.332279 0.000000
vt 0.334111 0.332279 0.000000
vt 0.667721 0.342247 0.000000
vt 0.999500 0.342247 0.000000
vt 0.999500 0.674026 0.000000
vt 0.667721 0.674026 0.000000
vt 0.000500 0.334111 0.000000
vt 0.332279 0.334111 0.000000
vt 0.332279 0.665890 0.000000
vt 0.000500 0.665890 0.000000
vt 0.000500 0.000500 0.000000
vt 0.332279 0.000500 0.000000
vt 0.332279 0.332279 0.000000
vt 0.000500 0.332279 0.000000
# 24 texture coords

o Box001
g Box001
usemtl 01___Default
s 2
f 1/1/1 2/2/2 3/3/3 
f 3/3/3 4/4/4 1/1/1 
s 4
f 5/5/5 6/6/6 7/7/7 
f 7/7/7 8/8/8 5/5/5 
s 8
f 1/9/1 4/10/4 6/11/6 
f 6/11/6 5/12/5 1/9/1 
s 16
f 4/13/4 3/14/3 7/15/7 
f 7/15/7 6/16/6 4/13/4 
s 32
f 3/17/3 2/18/2 8/19/8 
f 8/19/8 7/20/7 3/17/3 
s 64
f 2/21/2 1/22/1 5/23/5 
f 5/23/5 8/24/8 2/21/2 
# 0 polygons - 12 triangles

